<svg width="60" height="52" viewBox="0 0 60 52" fill="none" xmlns="http://www.w3.org/2000/svg">
<path d="M26.2506 31.1698C26.2506 33.2373 27.9327 34.9193 30.0002 34.9193C32.0677 34.9193 33.7497 33.2373 33.7497 31.1698C33.7497 30.6523 33.3302 30.2327 32.8127 30.2327C32.2953 30.2327 31.8757 30.6523 31.8757 31.1698C31.8757 32.204 31.0344 33.0453 30.0002 33.0453C28.9659 33.0453 28.1246 32.204 28.1246 31.1698C28.1246 30.9764 28.1541 30.7897 28.2087 30.6141C28.2411 30.5649 28.2706 30.5134 28.2939 30.457C28.3164 30.4023 28.3328 30.3468 28.3445 30.291C28.6601 29.6986 29.2836 29.2943 30.0003 29.2943C30.5177 29.2943 30.9373 28.8748 30.9373 28.3573C30.9373 27.8399 30.5177 27.4203 30.0003 27.4203C28.7792 27.4203 27.693 28.0072 27.008 28.9134L12.728 23.0261C12.2494 22.8287 11.7017 23.0568 11.5046 23.5353C11.3073 24.0137 11.5353 24.5614 12.0137 24.7586L26.2884 30.6439C26.264 30.8157 26.2506 30.9911 26.2506 31.1698Z" fill="#1064E5" stroke="#1064E5" stroke-width="0.5"/>
<path d="M51.2132 9.95671C45.547 4.29051 38.0134 1.16992 30.0001 1.16992C21.9867 1.16992 14.4531 4.29051 8.78679 9.95671C3.12047 15.6229 0 23.1566 0 31.1699C0 37.0379 1.70055 42.7269 4.91765 47.6222C5.09767 47.896 5.39658 48.0447 5.70157 48.0447C5.8782 48.0447 6.0567 47.9948 6.21529 47.8906C6.64772 47.6064 6.76789 47.0254 6.48374 46.593C5.68342 45.3754 4.98441 44.1048 4.38754 42.7931L6.97239 41.7223C7.4505 41.5243 7.67761 40.9761 7.47955 40.498C7.28149 40.0198 6.73322 39.793 6.25523 39.9908L3.66862 41.0623C2.59481 38.209 1.99184 35.1897 1.89006 32.1068H4.68703C5.20449 32.1068 5.62404 31.6872 5.62404 31.1697C5.62404 30.6523 5.20449 30.2327 4.68703 30.2327H1.89112C1.99208 27.128 2.59411 24.1106 3.65866 21.2731L6.25523 22.3486C6.37247 22.3972 6.49393 22.4202 6.61352 22.4202C6.98118 22.4202 7.33009 22.2023 7.47955 21.8416C7.67761 21.3635 7.4505 20.8153 6.97239 20.6173L4.37583 19.5417C5.62943 16.7825 7.33736 14.2231 9.46144 11.9563L11.4385 13.9334C11.6215 14.1163 11.8612 14.2078 12.1011 14.2078C12.341 14.2078 12.5807 14.1163 12.7637 13.9334C13.1297 13.5675 13.1297 12.9742 12.7637 12.6083L10.7866 10.6312C13.0535 8.50728 15.6128 6.79935 18.372 5.54563L19.4476 8.1422C19.597 8.50306 19.946 8.7208 20.3136 8.7208C20.4332 8.7208 20.5547 8.69784 20.6719 8.64923C21.15 8.45117 21.3771 7.90303 21.1791 7.42492L20.1035 4.82835C22.941 3.76379 25.9584 3.16177 29.0632 3.0608V5.85672C29.0632 6.37418 29.4827 6.79373 30.0002 6.79373C30.5176 6.79373 30.9372 6.37418 30.9372 5.85672V3.06104C34.042 3.162 37.0594 3.76403 39.8969 4.82859L38.8213 7.42515C38.6232 7.90326 38.8503 8.45141 39.3284 8.64947C39.4457 8.69808 39.5671 8.72103 39.6867 8.72103C40.0544 8.72103 40.4033 8.50318 40.5528 8.14243L41.6283 5.54587C44.3876 6.79946 46.9469 8.5074 49.2136 10.6315L47.2365 12.6086C46.8705 12.9745 46.8705 13.5677 47.2365 13.9336C47.4195 14.1166 47.6593 14.208 47.8991 14.208C48.139 14.208 48.3788 14.1166 48.5617 13.9336L50.5388 11.9565C52.6628 14.2234 54.3707 16.7827 55.6244 19.542L53.0278 20.6175C52.5497 20.8156 52.3226 21.3637 52.5207 21.8418C52.6701 22.2027 53.0191 22.4204 53.3867 22.4204C53.5063 22.4204 53.6278 22.3975 53.745 22.3489L56.3416 21.2733C57.4061 24.1108 58.0082 27.1282 58.1091 30.233H55.3132C54.7957 30.233 54.3762 30.6525 54.3762 31.17C54.3762 31.6874 54.7957 32.107 55.3132 32.107H58.1101C58.0084 35.19 57.4053 38.2092 56.3315 41.0626L53.7449 39.9911C53.2669 39.7934 52.7188 40.0201 52.5206 40.4982C52.3225 40.9763 52.5496 41.5245 53.0277 41.7226L55.6126 42.7933C55.0157 44.1051 54.3167 45.3756 53.5164 46.5932C53.2321 47.0257 53.3524 47.6066 53.7848 47.8909C54.2171 48.1749 54.7982 48.0549 55.0825 47.6224C58.2997 42.7273 60.0001 37.0381 60.0001 31.1701C60 23.1566 56.8794 15.6229 51.2132 9.95671Z" fill="#1064E5" stroke="#1064E5" stroke-width="0.5"/>
<path d="M38.4174 41.4609H21.5513C20.0013 41.4609 18.7402 42.722 18.7402 44.272V48.02C18.7402 49.5699 20.0013 50.831 21.5513 50.831H38.4174C39.9673 50.831 41.2284 49.5699 41.2284 48.02V44.272C41.2284 42.7219 39.9673 41.4609 38.4174 41.4609ZM39.3544 48.02C39.3544 48.5366 38.934 48.957 38.4174 48.957H21.5513C21.0346 48.957 20.6142 48.5366 20.6142 48.02V44.272C20.6142 43.7553 21.0346 43.335 21.5513 43.335H38.4174C38.934 43.335 39.3544 43.7553 39.3544 44.272V48.02Z" fill="#1064E5" stroke="#1064E5" stroke-width="0.5"/>
<path d="M30.9204 45.209H29.0464C28.5289 45.209 28.1094 45.6285 28.1094 46.146C28.1094 46.6635 28.5289 47.083 29.0464 47.083H30.9204C31.4379 47.083 31.8574 46.6635 31.8574 46.146C31.8574 45.6285 31.4379 45.209 30.9204 45.209Z" fill="#1064E5" stroke="#1064E5" stroke-width="0.5"/>
<path d="M26.2368 45.209H24.3628C23.8453 45.209 23.4258 45.6285 23.4258 46.146C23.4258 46.6635 23.8453 47.083 24.3628 47.083H26.2368C26.7543 47.083 27.1738 46.6635 27.1738 46.146C27.1738 45.6285 26.7543 45.209 26.2368 45.209Z" fill="#1064E5" stroke="#1064E5" stroke-width="0.5"/>
<path d="M35.606 45.209H33.7319C33.2145 45.209 32.7949 45.6285 32.7949 46.146C32.7949 46.6635 33.2145 47.083 33.7319 47.083H35.606C36.1234 47.083 36.543 46.6635 36.543 46.146C36.543 45.6285 36.1234 45.209 35.606 45.209Z" fill="#1064E5" stroke="#1064E5" stroke-width="0.5"/>
</svg>
