<svg width="60" height="60" viewBox="0 0 60 60" fill="none" xmlns="http://www.w3.org/2000/svg">
<g clip-path="url(#clip0_1026_4861)">
<path d="M26.2506 35.1698C26.2506 37.2373 27.9327 38.9193 30.0002 38.9193C32.0677 38.9193 33.7497 37.2373 33.7497 35.1698C33.7497 34.6523 33.3302 34.2327 32.8127 34.2327C32.2953 34.2327 31.8757 34.6523 31.8757 35.1698C31.8757 36.204 31.0344 37.0453 30.0002 37.0453C28.9659 37.0453 28.1246 36.204 28.1246 35.1698C28.1246 34.9764 28.1541 34.7897 28.2087 34.6141C28.2411 34.5649 28.2706 34.5134 28.2939 34.457C28.3164 34.4023 28.3328 34.3468 28.3445 34.291C28.6601 33.6986 29.2836 33.2943 30.0003 33.2943C30.5177 33.2943 30.9373 32.8748 30.9373 32.3573C30.9373 31.8399 30.5177 31.4203 30.0003 31.4203C28.7792 31.4203 27.693 32.0072 27.008 32.9134L12.728 27.0261C12.2494 26.8287 11.7017 27.0568 11.5046 27.5353C11.3073 28.0137 11.5353 28.5614 12.0137 28.7586L26.2884 34.6439C26.264 34.8157 26.2506 34.9911 26.2506 35.1698Z" fill="#1064E5" stroke="#1064E5" stroke-width="0.5"/>
<path d="M51.2132 13.9567C45.547 8.29051 38.0134 5.16992 30.0001 5.16992C21.9867 5.16992 14.4531 8.29051 8.78679 13.9567C3.12047 19.6229 0 27.1566 0 35.1699C0 41.0379 1.70055 46.7269 4.91765 51.6222C5.09767 51.896 5.39658 52.0447 5.70157 52.0447C5.8782 52.0447 6.0567 51.9948 6.21529 51.8906C6.64772 51.6064 6.76789 51.0254 6.48374 50.593C5.68342 49.3754 4.98441 48.1048 4.38754 46.7931L6.97239 45.7223C7.4505 45.5243 7.67761 44.9761 7.47955 44.498C7.28149 44.0198 6.73322 43.793 6.25523 43.9908L3.66862 45.0623C2.59481 42.209 1.99184 39.1897 1.89006 36.1068H4.68703C5.20449 36.1068 5.62404 35.6872 5.62404 35.1697C5.62404 34.6523 5.20449 34.2327 4.68703 34.2327H1.89112C1.99208 31.128 2.59411 28.1106 3.65866 25.2731L6.25523 26.3486C6.37247 26.3972 6.49393 26.4202 6.61352 26.4202C6.98118 26.4202 7.33009 26.2023 7.47955 25.8416C7.67761 25.3635 7.4505 24.8153 6.97239 24.6173L4.37583 23.5417C5.62943 20.7825 7.33736 18.2231 9.46144 15.9563L11.4385 17.9334C11.6215 18.1163 11.8612 18.2078 12.1011 18.2078C12.341 18.2078 12.5807 18.1163 12.7637 17.9334C13.1297 17.5675 13.1297 16.9742 12.7637 16.6083L10.7866 14.6312C13.0535 12.5073 15.6128 10.7993 18.372 9.54563L19.4476 12.1422C19.597 12.5031 19.946 12.7208 20.3136 12.7208C20.4332 12.7208 20.5547 12.6978 20.6719 12.6492C21.15 12.4512 21.3771 11.903 21.1791 11.4249L20.1035 8.82835C22.941 7.76379 25.9584 7.16177 29.0632 7.0608V9.85672C29.0632 10.3742 29.4827 10.7937 30.0002 10.7937C30.5176 10.7937 30.9372 10.3742 30.9372 9.85672V7.06104C34.042 7.162 37.0594 7.76403 39.8969 8.82859L38.8213 11.4252C38.6232 11.9033 38.8503 12.4514 39.3284 12.6495C39.4457 12.6981 39.5671 12.721 39.6867 12.721C40.0544 12.721 40.4033 12.5032 40.5528 12.1424L41.6283 9.54587C44.3876 10.7995 46.9469 12.5074 49.2136 14.6315L47.2365 16.6086C46.8705 16.9745 46.8705 17.5677 47.2365 17.9336C47.4195 18.1166 47.6593 18.208 47.8991 18.208C48.139 18.208 48.3788 18.1166 48.5617 17.9336L50.5388 15.9565C52.6628 18.2234 54.3707 20.7827 55.6244 23.542L53.0278 24.6175C52.5497 24.8156 52.3226 25.3637 52.5207 25.8418C52.6701 26.2027 53.0191 26.4204 53.3867 26.4204C53.5063 26.4204 53.6278 26.3975 53.745 26.3489L56.3416 25.2733C57.4061 28.1108 58.0082 31.1282 58.1091 34.233H55.3132C54.7957 34.233 54.3762 34.6525 54.3762 35.17C54.3762 35.6874 54.7957 36.107 55.3132 36.107H58.1101C58.0084 39.19 57.4053 42.2092 56.3315 45.0626L53.7449 43.9911C53.2669 43.7934 52.7188 44.0201 52.5206 44.4982C52.3225 44.9763 52.5496 45.5245 53.0277 45.7226L55.6126 46.7933C55.0157 48.1051 54.3167 49.3756 53.5164 50.5932C53.2321 51.0257 53.3524 51.6066 53.7848 51.8909C54.2171 52.1749 54.7982 52.0549 55.0825 51.6224C58.2997 46.7273 60.0001 41.0381 60.0001 35.1701C60 27.1566 56.8794 19.6229 51.2132 13.9567Z" fill="#1064E5" stroke="#1064E5" stroke-width="0.5"/>
<path d="M38.4174 45.4609H21.5513C20.0013 45.4609 18.7402 46.722 18.7402 48.272V52.02C18.7402 53.5699 20.0013 54.831 21.5513 54.831H38.4174C39.9673 54.831 41.2284 53.5699 41.2284 52.02V48.272C41.2284 46.7219 39.9673 45.4609 38.4174 45.4609ZM39.3544 52.02C39.3544 52.5366 38.934 52.957 38.4174 52.957H21.5513C21.0346 52.957 20.6142 52.5366 20.6142 52.02V48.272C20.6142 47.7553 21.0346 47.335 21.5513 47.335H38.4174C38.934 47.335 39.3544 47.7553 39.3544 48.272V52.02Z" fill="#1064E5" stroke="#1064E5" stroke-width="0.5"/>
<path d="M30.9204 49.209H29.0464C28.5289 49.209 28.1094 49.6285 28.1094 50.146C28.1094 50.6635 28.5289 51.083 29.0464 51.083H30.9204C31.4379 51.083 31.8574 50.6635 31.8574 50.146C31.8574 49.6285 31.4379 49.209 30.9204 49.209Z" fill="#1064E5" stroke="#1064E5" stroke-width="0.5"/>
<path d="M26.2368 49.209H24.3628C23.8453 49.209 23.4258 49.6285 23.4258 50.146C23.4258 50.6635 23.8453 51.083 24.3628 51.083H26.2368C26.7543 51.083 27.1738 50.6635 27.1738 50.146C27.1738 49.6285 26.7543 49.209 26.2368 49.209Z" fill="#1064E5" stroke="#1064E5" stroke-width="0.5"/>
<path d="M35.606 49.209H33.7319C33.2145 49.209 32.7949 49.6285 32.7949 50.146C32.7949 50.6635 33.2145 51.083 33.7319 51.083H35.606C36.1234 51.083 36.543 50.6635 36.543 50.146C36.543 49.6285 36.1234 49.209 35.606 49.209Z" fill="#1064E5" stroke="#1064E5" stroke-width="0.5"/>
</g>
<defs>
<clipPath id="clip0_1026_4861">
<rect width="60" height="60" fill="white"/>
</clipPath>
</defs>
</svg>
